{
	"asset":
	{
		"version": "2.0",
		"generator": "Unreal Engine 4.26.0 glTF Exporter 1.0.6"
	},
	"scene": 0,
	"accessors": [
		{
			"bufferView": 0,
			"count": 144,
			"type": "SCALAR",
			"componentType": 5121
		},
		{
			"bufferView": 1,
			"count": 54,
			"type": "VEC3",
			"componentType": 5126,
			"min": [ -0.5,
				-0.5,
				-0.5
			],
			"max": [ 0.5,
				0.5,
				0.5
			]
		},
		{
			"bufferView": 2,
			"count": 54,
			"type": "VEC3",
			"componentType": 5120,
			"normalized": true
		},
		{
			"bufferView": 3,
			"count": 54,
			"type": "VEC4",
			"componentType": 5120,
			"normalized": true
		},
		{
			"bufferView": 4,
			"count": 54,
			"type": "VEC2",
			"componentType": 5126
		},
		{
			"bufferView": 5,
			"count": 54,
			"type": "VEC2",
			"componentType": 5126
		}
	],
	"buffers": [
		{
			"uri": "acube.bin",
			"byteLength": 2088
		}
	],
	"bufferViews": [
		{
			"buffer": 0,
			"byteLength": 144,
			"target": 34963
		},
		{
			"buffer": 0,
			"byteLength": 648,
			"byteOffset": 144,
			"target": 34962
		},
		{
			"buffer": 0,
			"byteLength": 216,
			"byteOffset": 792,
			"byteStride": 4,
			"target": 34962
		},
		{
			"buffer": 0,
			"byteLength": 216,
			"byteOffset": 1008,
			"target": 34962
		},
		{
			"buffer": 0,
			"byteLength": 432,
			"byteOffset": 1224,
			"target": 34962
		},
		{
			"buffer": 0,
			"byteLength": 432,
			"byteOffset": 1656,
			"target": 34962
		}
	],
	"images": [
		{
			"uri": "aton-cube.jpg"
		},
		{
			"uri": "aton-cube-pbr.jpg"
		},
		{
			"uri": "aton-cube-nrm.png"
		}
	],
	"materials": [
		{
			"name": "M_atonCube",
			"pbrMetallicRoughness":
			{
				"baseColorTexture":
				{
					"index": 0
				},
				"metallicRoughnessTexture":
				{
					"index": 1
				}
			},
			"normalTexture":
			{
				"index": 2
			}
		}
	],
	"meshes": [
		{
			"name": "a-cube",
			"primitives": [
				{
					"attributes":
					{
						"POSITION": 1,
						"NORMAL": 2,
						"TANGENT": 3,
						"TEXCOORD_0": 4,
						"TEXCOORD_1": 5
					},
					"indices": 0,
					"material": 0
				}
			]
		}
	],
	"nodes": [
		{
			"mesh": 0
		}
	],
	"samplers": [
		{
			"name": "aton-cube",
			"minFilter": 9987,
			"magFilter": 9729
		},
		{
			"name": "aton-cube-pbr",
			"minFilter": 9987,
			"magFilter": 9729
		},
		{
			"name": "aton-cube-nrm",
			"minFilter": 9985,
			"magFilter": 9729
		}
	],
	"scenes": [
		{
			"nodes": [ 0 ]
		}
	],
	"textures": [
		{
			"name": "aton-cube",
			"sampler": 0,
			"source": 0
		},
		{
			"name": "aton-cube-pbr",
			"sampler": 1,
			"source": 1
		},
		{
			"name": "aton-cube-nrm",
			"sampler": 2,
			"source": 2
		}
	],
	"extensionsUsed": [
		"KHR_mesh_quantization"
	],
	"extensionsRequired": [
		"KHR_mesh_quantization"
	]
}