{"accessors":[{"componentType":5126,"count":4,"min":[-1,-6.123234262925839e-17,-1],"max":[1,6.123234262925839e-17,1],"type":"VEC3","bufferView":0,"byteOffset":0},{"componentType":5126,"count":4,"min":[0,-9],"max":[10,1],"type":"VEC2","bufferView":1,"byteOffset":0},{"componentType":5123,"count":6,"min":[0],"max":[3],"type":"SCALAR","bufferView":2,"byteOffset":0}],"asset":{"generator":"obj2gltf","version":"2.0"},"buffers":[{"name":"ground10","byteLength":92,"uri":"ground10.bin"}],"bufferViews":[{"name":"bufferView_0","buffer":0,"byteLength":48,"byteOffset":0,"byteStride":12,"target":34962},{"name":"bufferView_1","buffer":0,"byteLength":32,"byteOffset":48,"byteStride":8,"target":34962},{"name":"bufferView_2","buffer":0,"byteLength":12,"byteOffset":80,"target":34963}],"images":[{"name":"ground","uri":"ground.jpg"}],"materials":[{"name":"material_1","pbrMetallicRoughness":{"baseColorTexture":{"index":0},"baseColorFactor":[1,1,1,1],"metallicFactor":0,"roughnessFactor":1},"emissiveFactor":[0,0,0],"alphaMode":"OPAQUE","doubleSided":false}],"meshes":[{"primitives":[{"attributes":{"POSITION":0,"TEXCOORD_0":1},"indices":2,"material":0,"mode":4}]}],"nodes":[{"mesh":0}],"samplers":[{"magFilter":9729,"minFilter":9986,"wrapS":10497,"wrapT":10497}],"scene":0,"scenes":[{"nodes":[0]}],"textures":[{"name":"ground","sampler":0,"source":0}]}