{
    "asset": {
        "version": "2.0",
        "generator": "Open Asset Import Library (assimp v4.1.104407956)"
    },
    "accessors": [
        {
            "bufferView": 0,
            "byteOffset": 0,
            "componentType": 5126,
            "count": 590,
            "type": "VEC3",
            "max": [
                0.655826985836029,
                0.6486539840698242,
                8.313343048095704
            ],
            "min": [
                -0.6251459717750549,
                -0.6481770277023315,
                7.25832986831665
            ]
        },
        {
            "bufferView": 1,
            "byteOffset": 0,
            "componentType": 5126,
            "count": 590,
            "type": "VEC3",
            "max": [
                0.9979932308197022,
                0.9959234595298767,
                0.9998024106025696
            ],
            "min": [
                -0.9985133409500122,
                -0.9933264255523682,
                -0.9980316758155823
            ]
        },
        {
            "bufferView": 2,
            "byteOffset": 0,
            "componentType": 5126,
            "count": 590,
            "type": "VEC2",
            "max": [
                0.9544450044631958,
                0.9895009994506836
            ],
            "min": [
                0.5143150091171265,
                0.011177003383636475
            ]
        },
        {
            "bufferView": 3,
            "byteOffset": 0,
            "componentType": 5125,
            "count": 2226,
            "type": "SCALAR",
            "max": [
                512.0
            ],
            "min": [
                0.0
            ]
        },
        {
            "bufferView": 4,
            "byteOffset": 0,
            "componentType": 5126,
            "count": 649,
            "type": "VEC3",
            "max": [
                0.625,
                0.625,
                7.25832986831665
            ],
            "min": [
                -0.625,
                -0.625,
                0.004178000148385763
            ]
        },
        {
            "bufferView": 5,
            "byteOffset": 0,
            "componentType": 5126,
            "count": 649,
            "type": "VEC3",
            "max": [
                1.0,
                1.0,
                1.0
            ],
            "min": [
                -1.0,
                -1.0,
                -0.8596054315567017
            ]
        },
        {
            "bufferView": 6,
            "byteOffset": 0,
            "componentType": 5126,
            "count": 649,
            "type": "VEC2",
            "max": [
                0.9998019933700562,
                0.9876580238342285
            ],
            "min": [
                0.011467999778687954,
                0.009688019752502442
            ]
        },
        {
            "bufferView": 7,
            "byteOffset": 0,
            "componentType": 5125,
            "count": 2670,
            "type": "SCALAR",
            "max": [
                352.0
            ],
            "min": [
                0.0
            ]
        }
    ],
    "buffers": [
        {
            "byteLength": 59232,
            "uri": "column.bin"
        }
    ],
    "bufferViews": [
        {
            "buffer": 0,
            "byteOffset": 0,
            "byteLength": 7080,
            "target": 34962
        },
        {
            "buffer": 0,
            "byteOffset": 7080,
            "byteLength": 7080,
            "target": 34962
        },
        {
            "buffer": 0,
            "byteOffset": 14160,
            "byteLength": 4720,
            "target": 34962
        },
        {
            "buffer": 0,
            "byteOffset": 18880,
            "byteLength": 8904,
            "target": 34963
        },
        {
            "buffer": 0,
            "byteOffset": 27784,
            "byteLength": 7788,
            "target": 34962
        },
        {
            "buffer": 0,
            "byteOffset": 35572,
            "byteLength": 7788,
            "target": 34962
        },
        {
            "buffer": 0,
            "byteOffset": 43360,
            "byteLength": 5192,
            "target": 34962
        },
        {
            "buffer": 0,
            "byteOffset": 48552,
            "byteLength": 10680,
            "target": 34963
        }
    ],
    "images": [
        {
            "uri": "CorinthianColumn.png"
        }
    ],
    "materials": [
        {
            "name": "DefaultMaterial",
            "pbrMetallicRoughness": {
                "baseColorFactor": [
                    0.6000000238418579,
                    0.6000000238418579,
                    0.6000000238418579,
                    1.0
                ],
                "metallicFactor": 0.0
            }
        },
        {
            "name": "CorintianCap_LOD2",
            "pbrMetallicRoughness": {
                "baseColorTexture": {
                    "index": 0
                },
                "baseColorFactor": [
                    0.6399999856948853,
                    0.6399999856948853,
                    0.6399999856948853,
                    1.0
                ],
                "metallicFactor": 0.0,
                "roughnessFactor": 0.8450174331665039
            }
        },
        {
            "name": "CorintianCap_LOD2_NONE",
            "pbrMetallicRoughness": {
                "baseColorTexture": {
                    "index": 0
                },
                "baseColorFactor": [
                    0.6399999856948853,
                    0.6399999856948853,
                    0.6399999856948853,
                    1.0
                ],
                "metallicFactor": 0.0,
                "roughnessFactor": 0.8450174331665039
            }
        }
    ],
    "meshes": [
        {
            "name": "Column_LOW_Untitled.003",
            "primitives": [
                {
                    "mode": 4,
                    "material": 1,
                    "indices": 3,
                    "attributes": {
                        "POSITION": 0,
                        "NORMAL": 1,
                        "TEXCOORD_0": 2
                    }
                },
                {
                    "mode": 4,
                    "material": 2,
                    "indices": 7,
                    "attributes": {
                        "POSITION": 4,
                        "NORMAL": 5,
                        "TEXCOORD_0": 6
                    }
                }
            ]
        }
    ],
    "nodes": [
        {
            "name": "Column_LOW.obj",
            "children": [
                1
            ]
        },
        {
            "name": "Column_LOW_Untitled.003",
            "mesh": 0
        }
    ],
    "samplers": [
        {}
    ],
    "scenes": [
        {
            "nodes": [
                0
            ]
        }
    ],
    "textures": [
        {
            "source": 0,
            "sampler": 0
        }
    ],
    "scene": 0
}