{
	"asset":
	{
		"version": "2.0",
		"generator": "Unreal Engine 4.26.0 glTF Exporter 1.0.6"
	},
	"scene": 0,
	"accessors": [
		{
			"bufferView": 0,
			"count": 6,
			"type": "SCALAR",
			"componentType": 5121
		},
		{
			"bufferView": 1,
			"count": 4,
			"type": "VEC3",
			"componentType": 5126,
			"min": [ -0.375,
				7.62939436e-08,
				0.499998957
			],
			"max": [ 0.625,
				0.999999881,
				0.500001013
			]
		},
		{
			"bufferView": 2,
			"count": 4,
			"type": "VEC3",
			"componentType": 5120,
			"normalized": true
		},
		{
			"bufferView": 3,
			"count": 4,
			"type": "VEC4",
			"componentType": 5120,
			"normalized": true
		},
		{
			"bufferView": 4,
			"count": 4,
			"type": "VEC2",
			"componentType": 5126
		},
		{
			"bufferView": 5,
			"count": 4,
			"type": "VEC2",
			"componentType": 5126
		},
		{
			"bufferView": 6,
			"count": 4,
			"type": "VEC2",
			"componentType": 5126
		},
		{
			"bufferView": 7,
			"count": 6,
			"type": "SCALAR",
			"componentType": 5121
		},
		{
			"bufferView": 8,
			"count": 4,
			"type": "VEC3",
			"componentType": 5126,
			"min": [ -0.375001431,
				0,
				-0.49999994
			],
			"max": [ -0.37499854,
				1,
				0.49999994
			]
		},
		{
			"bufferView": 9,
			"count": 4,
			"type": "VEC3",
			"componentType": 5120,
			"normalized": true
		},
		{
			"bufferView": 10,
			"count": 4,
			"type": "VEC4",
			"componentType": 5120,
			"normalized": true
		},
		{
			"bufferView": 11,
			"count": 4,
			"type": "VEC2",
			"componentType": 5126
		},
		{
			"bufferView": 12,
			"count": 4,
			"type": "VEC2",
			"componentType": 5126
		},
		{
			"bufferView": 13,
			"count": 4,
			"type": "VEC2",
			"componentType": 5126
		},
		{
			"bufferView": 14,
			"count": 6,
			"type": "SCALAR",
			"componentType": 5121
		},
		{
			"bufferView": 15,
			"count": 4,
			"type": "VEC3",
			"componentType": 5126,
			"min": [ -0.375,
				-8.04061311e-17,
				-0.5
			],
			"max": [ 0.625,
				8.04061311e-17,
				0.5
			]
		},
		{
			"bufferView": 16,
			"count": 4,
			"type": "VEC3",
			"componentType": 5120,
			"normalized": true
		},
		{
			"bufferView": 17,
			"count": 4,
			"type": "VEC4",
			"componentType": 5120,
			"normalized": true
		},
		{
			"bufferView": 18,
			"count": 4,
			"type": "VEC2",
			"componentType": 5126
		},
		{
			"bufferView": 19,
			"count": 4,
			"type": "VEC2",
			"componentType": 5126
		},
		{
			"bufferView": 20,
			"count": 4,
			"type": "VEC2",
			"componentType": 5126
		},
		{
			"bufferView": 21,
			"count": 6,
			"type": "SCALAR",
			"componentType": 5121
		},
		{
			"bufferView": 22,
			"count": 4,
			"type": "VEC3",
			"componentType": 5126,
			"min": [ -0.37500006,
				-3.81469718e-08,
				-0.500001431
			],
			"max": [ 0.62500006,
				1,
				-0.49999854
			]
		},
		{
			"bufferView": 23,
			"count": 4,
			"type": "VEC3",
			"componentType": 5120,
			"normalized": true
		},
		{
			"bufferView": 24,
			"count": 4,
			"type": "VEC4",
			"componentType": 5120,
			"normalized": true
		},
		{
			"bufferView": 25,
			"count": 4,
			"type": "VEC2",
			"componentType": 5126
		},
		{
			"bufferView": 26,
			"count": 4,
			"type": "VEC2",
			"componentType": 5126
		},
		{
			"bufferView": 27,
			"count": 4,
			"type": "VEC2",
			"componentType": 5126
		}
	],
	"buffers": [
		{
			"uri": "openbox.bin",
			"byteLength": 736
		}
	],
	"bufferViews": [
		{
			"buffer": 0,
			"byteLength": 6,
			"target": 34963
		},
		{
			"buffer": 0,
			"byteLength": 48,
			"byteOffset": 8,
			"target": 34962
		},
		{
			"buffer": 0,
			"byteLength": 16,
			"byteOffset": 56,
			"byteStride": 4,
			"target": 34962
		},
		{
			"buffer": 0,
			"byteLength": 16,
			"byteOffset": 72,
			"target": 34962
		},
		{
			"buffer": 0,
			"byteLength": 32,
			"byteOffset": 88,
			"target": 34962
		},
		{
			"buffer": 0,
			"byteLength": 32,
			"byteOffset": 120,
			"target": 34962
		},
		{
			"buffer": 0,
			"byteLength": 32,
			"byteOffset": 152,
			"target": 34962
		},
		{
			"buffer": 0,
			"byteLength": 6,
			"byteOffset": 184,
			"target": 34963
		},
		{
			"buffer": 0,
			"byteLength": 48,
			"byteOffset": 192,
			"target": 34962
		},
		{
			"buffer": 0,
			"byteLength": 16,
			"byteOffset": 240,
			"byteStride": 4,
			"target": 34962
		},
		{
			"buffer": 0,
			"byteLength": 16,
			"byteOffset": 256,
			"target": 34962
		},
		{
			"buffer": 0,
			"byteLength": 32,
			"byteOffset": 272,
			"target": 34962
		},
		{
			"buffer": 0,
			"byteLength": 32,
			"byteOffset": 304,
			"target": 34962
		},
		{
			"buffer": 0,
			"byteLength": 32,
			"byteOffset": 336,
			"target": 34962
		},
		{
			"buffer": 0,
			"byteLength": 6,
			"byteOffset": 368,
			"target": 34963
		},
		{
			"buffer": 0,
			"byteLength": 48,
			"byteOffset": 376,
			"target": 34962
		},
		{
			"buffer": 0,
			"byteLength": 16,
			"byteOffset": 424,
			"byteStride": 4,
			"target": 34962
		},
		{
			"buffer": 0,
			"byteLength": 16,
			"byteOffset": 440,
			"target": 34962
		},
		{
			"buffer": 0,
			"byteLength": 32,
			"byteOffset": 456,
			"target": 34962
		},
		{
			"buffer": 0,
			"byteLength": 32,
			"byteOffset": 488,
			"target": 34962
		},
		{
			"buffer": 0,
			"byteLength": 32,
			"byteOffset": 520,
			"target": 34962
		},
		{
			"buffer": 0,
			"byteLength": 6,
			"byteOffset": 552,
			"target": 34963
		},
		{
			"buffer": 0,
			"byteLength": 48,
			"byteOffset": 560,
			"target": 34962
		},
		{
			"buffer": 0,
			"byteLength": 16,
			"byteOffset": 608,
			"byteStride": 4,
			"target": 34962
		},
		{
			"buffer": 0,
			"byteLength": 16,
			"byteOffset": 624,
			"target": 34962
		},
		{
			"buffer": 0,
			"byteLength": 32,
			"byteOffset": 640,
			"target": 34962
		},
		{
			"buffer": 0,
			"byteLength": 32,
			"byteOffset": 672,
			"target": 34962
		},
		{
			"buffer": 0,
			"byteLength": 32,
			"byteOffset": 704,
			"target": 34962
		}
	],
	"images": [
		{
			"uri": "panel-red.png"
		},
		{
			"uri": "panel-green.png"
		},
		{
			"uri": "panel-white.png"
		},
		{
			"uri": "panel-blue.png"
		}
	],
	"materials": [
		{
			"name": "M_tint",
			"pbrMetallicRoughness":
			{
				"baseColorTexture":
				{
					"index": 0
				},
				"metallicFactor": 0
			}
		},
		{
			"name": "MI_tintG",
			"pbrMetallicRoughness":
			{
				"baseColorTexture":
				{
					"index": 1
				},
				"metallicFactor": 0
			}
		},
		{
			"name": "MI_tintW",
			"pbrMetallicRoughness":
			{
				"baseColorTexture":
				{
					"index": 2
				},
				"metallicFactor": 0
			}
		},
		{
			"name": "MI_tintB",
			"pbrMetallicRoughness":
			{
				"baseColorTexture":
				{
					"index": 3
				},
				"metallicFactor": 0
			}
		}
	],
	"meshes": [
		{
			"name": "openbox-flat",
			"primitives": [
				{
					"attributes":
					{
						"POSITION": 1,
						"NORMAL": 2,
						"TANGENT": 3,
						"TEXCOORD_0": 4,
						"TEXCOORD_1": 5,
						"TEXCOORD_2": 6
					},
					"indices": 0,
					"material": 0
				},
				{
					"attributes":
					{
						"POSITION": 8,
						"NORMAL": 9,
						"TANGENT": 10,
						"TEXCOORD_0": 11,
						"TEXCOORD_1": 12,
						"TEXCOORD_2": 13
					},
					"indices": 7,
					"material": 1
				},
				{
					"attributes":
					{
						"POSITION": 15,
						"NORMAL": 16,
						"TANGENT": 17,
						"TEXCOORD_0": 18,
						"TEXCOORD_1": 19,
						"TEXCOORD_2": 20
					},
					"indices": 14,
					"material": 2
				},
				{
					"attributes":
					{
						"POSITION": 22,
						"NORMAL": 23,
						"TANGENT": 24,
						"TEXCOORD_0": 25,
						"TEXCOORD_1": 26,
						"TEXCOORD_2": 27
					},
					"indices": 21,
					"material": 3
				}
			]
		}
	],
	"nodes": [
		{
			"mesh": 0
		}
	],
	"samplers": [
		{
			"name": "M_tint_BaseColor",
			"minFilter": 9987,
			"magFilter": 9729
		},
		{
			"name": "MI_tintG_BaseColor",
			"minFilter": 9987,
			"magFilter": 9729
		},
		{
			"name": "MI_tintW_BaseColor",
			"minFilter": 9987,
			"magFilter": 9729
		},
		{
			"name": "MI_tintB_BaseColor",
			"minFilter": 9987,
			"magFilter": 9729
		}
	],
	"scenes": [
		{
			"nodes": [ 0 ]
		}
	],
	"textures": [
		{
			"name": "M_tint_BaseColor",
			"sampler": 0,
			"source": 0
		},
		{
			"name": "MI_tintG_BaseColor",
			"sampler": 1,
			"source": 1
		},
		{
			"name": "MI_tintW_BaseColor",
			"sampler": 2,
			"source": 2
		},
		{
			"name": "MI_tintB_BaseColor",
			"sampler": 3,
			"source": 3
		}
	],
	"extensionsUsed": [
		"KHR_mesh_quantization"
	],
	"extensionsRequired": [
		"KHR_mesh_quantization"
	]
}